<?xml version="1.0" encoding="iso-8859-1"?>
<!-- Uploaded to: SVG Repo, www.svgrepo.com, Generator: SVG Repo Mixer Tools -->
<svg fill="#000000" height="800px" width="800px" version="1.1" id="Layer_1" xmlns="http://www.w3.org/2000/svg" xmlns:xlink="http://www.w3.org/1999/xlink" 
	 viewBox="0 0 512 512" xml:space="preserve">
<g>
	<g>
		<path d="M354.699,185.06c71.43,0,129.542-58.113,129.542-129.542V37.012H348.53v18.506c0,44.686-31.84,82.071-74.024,90.667
			v-38.332c21.54-7.639,37.012-28.209,37.012-52.335C311.518,24.905,286.614,0,256,0s-55.518,24.905-55.518,55.518
			c0,24.126,15.472,44.696,37.012,52.335v38.332c-42.184-8.597-74.024-45.981-74.024-90.667V37.012H27.759v18.506
			c0,71.43,58.113,129.542,129.542,129.542h80.193v37.012H120.289c-30.613,0-55.518,24.904-55.518,55.518
			c0,29.621,23.316,53.894,52.561,55.438c-2.073,5.816-3.211,12.068-3.211,18.586c0,30.614,24.905,55.518,55.518,55.518h67.855V512
			h37.012V407.133h67.855c30.614,0,55.518-24.904,55.518-55.518c0-6.518-1.138-12.772-3.211-18.586
			c29.245-1.543,52.561-25.817,52.561-55.438c0-30.614-24.904-55.518-55.518-55.518H274.506V185.06H354.699z M384.225,74.024h61.146
			c-8.599,42.181-45.986,74.024-90.671,74.024h-8.125C366.439,128.6,380.087,102.827,384.225,74.024z M157.301,148.048
			c-44.685,0-82.072-31.843-90.671-74.024h61.146c4.138,28.803,17.786,54.576,37.651,74.024H157.301z M237.494,370.12h-67.855
			c-10.204,0-18.506-8.301-18.506-18.506c0-10.205,8.302-18.506,18.506-18.506h67.855V370.12z M237.494,296.096h-67.855h-49.349
			c-10.204,0-18.506-8.302-18.506-18.506c0-10.204,8.302-18.506,18.506-18.506h117.205V296.096z M342.361,370.12h-67.855v-37.012
			h67.855c10.205,0,18.506,8.301,18.506,18.506C360.867,361.82,352.567,370.12,342.361,370.12z M391.711,259.084
			c10.205,0,18.506,8.302,18.506,18.506c0,10.204-8.301,18.506-18.506,18.506h-49.349h-67.855v-37.012H391.711z M256,74.024
			c-10.204,0-18.506-8.302-18.506-18.506S245.796,37.012,256,37.012s18.506,8.302,18.506,18.506S266.204,74.024,256,74.024z"/>
	</g>
</g>
</svg>